#!OML:ASF F:\VICON\USERDATA\INSTALL\rory3\rory3.ASF
:FULLY-SPECIFIED
:DEGREES
290
root 5.56501 18.0661 8.73792 -182.709 40.7264 177.951
lowerback 10.935 2.15064 0.110517
upperback 1.7402 2.98465 0.236087
thorax -4.31453 1.52001 -0.250808
lowerneck -15.1465 7.49455 -4.03494
upperneck 45.1515 19.7623 1.76053
head 19.4434 8.86499 5.94622
rclavicle 1.17979e-013 -5.96354e-015
rhumerus -42.8972 -4.70049 -72.894
rradius 32.6959
rwrist 4.54717
rhand -15.0565 9.06313
rfingers 7.12502
rthumb 11.1102 -20.6228
lclavicle 1.17979e-013 -5.96354e-015
lhumerus -25.9935 6.56935 83.5183
lradius 37.1207
lwrist -3.38931
lhand -20.5055 24.8697
lfingers 7.12502
lthumb 5.85177 54.7688
rfemur -18.9427 -3.97855 15.2383
rtibia 28.5677
rfoot -3.41456 4.82702
rtoes -7.09293
lfemur 6.76059 -11.5118 -25.1948
ltibia 29.7706
lfoot 15.4819 -24.0553
ltoes 22.8786
291
root 5.44133 18.0636 8.81484 -182.759 41.1973 177.809
lowerback 10.9928 2.08377 -0.00530944
upperback 1.78915 2.88451 0.233488
thorax -4.30115 1.47328 -0.175364
lowerneck -15.0525 7.44241 -4.10605
upperneck 45.0163 19.5983 1.68362
head 19.3422 8.77728 5.85942
rclavicle -1.06101e-013 1.11319e-014
rhumerus -42.9205 -5.30976 -72.4066
rradius 32.7441
rwrist 4.26022
rhand -15.3566 8.82381
rfingers 7.12502
rthumb 10.8208 -20.8774
lclavicle -1.06101e-013 1.11319e-014
lhumerus -25.5825 6.40034 83.6061
lradius 37.6354
lwrist -3.2372
lhand -20.4313 25.3617
lfingers 7.12502
lthumb 5.92343 55.2589
rfemur -19.3223 -3.78441 15.0626
rtibia 28.0216
rfoot -2.83294 4.98038
rtoes -7.65696
lfemur 6.56188 -10.8834 -25.4856
ltibia 29.6576
lfoot 13.7706 -24.2782
ltoes 22.8598
292
root 5.31456 18.0604 8.89327 -182.773 41.6069 177.725
lowerback 11.1044 1.97145 -0.0557362
upperback 1.82053 2.7319 0.238154
thorax -4.3327 1.39939 -0.123804
lowerneck -15.013 7.4065 -4.34222
upperneck 44.977 19.4625 1.80296
head 19.2534 8.69625 5.90196
rclavicle -8.85586e-014 -1.63003e-014
rhumerus -42.786 -6.25893 -71.7461
rradius 32.4649
rwrist 4.35513
rhand -15.692 7.5368
rfingers 7.12502
rthumb 10.4973 -22.1811
lclavicle -8.85586e-014 -1.63003e-014
lhumerus -25.3109 6.26576 83.6556
lradius 38.2108
lwrist -3.19292
lhand -20.6339 25.4885
lfingers 7.12502
lthumb 5.7278 55.391
rfemur -19.7047 -3.88302 14.98
rtibia 27.4678
rfoot -2.20753 5.19137
rtoes -8.7862
lfemur 6.39895 -10.4181 -25.7178
ltibia 29.4144
lfoot 12.0778 -24.3885
ltoes 20.9436
293
root 5.18849 18.0576 8.9666 -182.787 42.0082 177.567
lowerback 11.1167 1.87696 -0.194328
upperback 1.85426 2.59191 0.25159
thorax -4.31078 1.3329 -0.011298
lowerneck -15.0091 7.35039 -4.53079
upperneck 45.048 19.3578 1.9057
head 19.2571 8.62598 5.95843
rclavicle -5.93869e-014 1.19271e-015
rhumerus -42.5935 -7.16439 -71.0557
rradius 32.0569
rwrist 4.57437
rhand -15.929 6.8148
rfingers 7.12502
rthumb 10.2686 -22.9145
lclavicle -5.93869e-014 1.19271e-015
lhumerus -24.9939 6.17434 83.7214
lradius 38.6156
lwrist -3.16339
lhand -21.0298 25.0036
lfingers 7.12502
lthumb 5.34562 54.9162
rfemur -20.0992 -4.05636 14.8134
rtibia 26.8814
rfoot -1.49089 5.42631
rtoes -9.31018
lfemur 6.17079 -10.2815 -26.0503
ltibia 29.1646
lfoot 10.4496 -23.9906
ltoes 20.0561
294
root 5.06544 18.0586 9.03966 -182.928 42.4655 177.217
lowerback 11.1038 1.82415 -0.483961
upperback 1.8789 2.48536 0.195239
thorax -4.28701 1.28425 0.109291
lowerneck -14.9285 7.29239 -4.47887
upperneck 45.088 19.2573 1.82837
head 19.2903 8.57489 5.89571
rclavicle -9.25343e-014 -5.56597e-015
rhumerus -42.4506 -8.26002 -70.4009
rradius 31.6999
rwrist 4.92348
rhand -16.0133 6.68249
rfingers 7.12502
rthumb 10.1873 -23.0509
lclavicle -9.25343e-014 -5.56597e-015
lhumerus -24.6317 5.681 83.7706
lradius 38.8629
lwrist -3.17648
lhand -21.8917 25.0228
lfingers 7.12502
lthumb 4.5133 54.9547
rfemur -20.5226 -4.09305 14.4675
rtibia 26.3471
rfoot -0.865002 5.67573
rtoes -9.52903
lfemur 5.88774 -10.2571 -26.5142
ltibia 28.896
lfoot 9.11737 -23.6418
ltoes 19.7619
295
root 4.94389 18.0605 9.11309 -183.046 42.9175 176.907
lowerback 11.0892 1.75845 -0.785706
upperback 1.90893 2.36299 0.184531
thorax -4.25802 1.22822 0.286636
lowerneck -14.856 7.24705 -4.51915
upperneck 45.1363 19.1817 1.80543
head 19.3061 8.52653 5.87411
rclavicle -9.25343e-014 5.56597e-015
rhumerus -42.2581 -9.50057 -69.6414
rradius 31.3318
rwrist 5.37056
rhand -15.8411 6.48429
rfingers 7.12502
rthumb 10.3534 -23.2408
lclavicle -9.25343e-014 5.56597e-015
lhumerus -24.4436 5.15628 83.8575
lradius 39.2586
lwrist -3.32944
lhand -22.8164 25.3396
lfingers 7.12502
lthumb 3.62039 55.2886
rfemur -20.944 -4.07842 14.1628
rtibia 25.8595
rfoot -0.607021 5.91234
rtoes -11.4263
lfemur 5.56517 -10.3262 -26.9207
ltibia 28.5833
lfoot 8.28976 -23.5167
ltoes 18.9874
296
root 4.82309 18.0619 9.1853 -183.224 43.2825 176.462
lowerback 11.0421 1.68314 -1.21107
upperback 1.9394 2.21314 0.156914
thorax -4.21273 1.15996 0.520907
lowerneck -14.8844 7.19913 -4.6378
upperneck 45.218 19.0812 1.89115
head 19.3388 8.46218 5.92012
rclavicle 6.56983e-014 -3.18055e-015
rhumerus -42.056 -10.5338 -69.0261
rradius 30.9675
rwrist 5.48964
rhand -16.0863 6.42992
rfingers 7.12502
rthumb 10.1169 -23.3069
lclavicle 6.56983e-014 -3.18055e-015
lhumerus -24.3756 5.13122 83.8353
lradius 39.7768
lwrist -3.58123
lhand -22.8521 24.9204
lfingers 7.12502
lthumb 3.58594 54.87
rfemur -21.3774 -4.07451 13.717
rtibia 25.3695
rfoot -0.415915 5.9643
rtoes -13.4667
lfemur 5.19524 -10.384 -27.3945
ltibia 28.2261
lfoot 7.5382 -23.6811
ltoes 17.2856
297
root 4.70222 18.066 9.25411 -183.469 43.6763 176.036
lowerback 11.0056 1.6241 -1.58841
upperback 2.02601 2.09474 0.135007
thorax -4.1119 1.10712 0.730107
lowerneck -14.9604 7.15112 -4.74673
upperneck 45.2479 18.9826 1.9158
head 19.365 8.38883 5.93682
rclavicle -3.47873e-014 1.86858e-014
rhumerus -41.8373 -11.7142 -68.3619
rradius 30.6007
rwrist 5.63508
rhand -16.3343 6.54124
rfingers 7.12502
rthumb 9.87761 -23.2071
lclavicle -3.47873e-014 1.86858e-014
lhumerus -24.2651 5.25578 83.7421
lradius 40.2987
lwrist -3.42961
lhand -22.4482 24.0805
lfingers 7.12502
lthumb 3.97596 54.0231
rfemur -21.6557 -3.82884 13.2165
rtibia 24.8257
rfoot -0.273917 5.70982
rtoes -15.1025
lfemur 4.88642 -10.4168 -27.8548
ltibia 27.9128
lfoot 6.50096 -23.9761
ltoes 15.9702
298
root 4.58552 18.0718 9.32062 -183.702 44.1059 175.837
lowerback 11.0899 1.54274 -1.8067
upperback 2.11775 1.96733 0.169717
thorax -4.06754 1.04843 0.906636
lowerneck -14.9736 7.12432 -4.87042
upperneck 45.3024 18.945 1.93631
head 19.3867 8.34196 5.96136
rclavicle -7.96133e-014 5.56597e-015
rhumerus -41.6414 -12.9907 -67.6121
rradius 30.1807
rwrist 6.07131
rhand -16.3364 6.62583
rfingers 7.12502
rthumb 9.87557 -23.1226
lclavicle -7.96133e-014 5.56597e-015
lhumerus -24.2797 5.21766 83.6986
lradius 40.9429
lwrist -2.80009
lhand -21.7729 23.9624
lfingers 7.12502
lthumb 4.62804 53.8918
rfemur -21.7192 -3.27576 12.8599
rtibia 24.2796
rfoot -0.355581 5.01607
rtoes -17.7364
lfemur 4.73892 -10.4681 -28.1474
ltibia 27.6141
lfoot 5.53258 -24.1549
ltoes 15.1556
